<?xml version="1.0" encoding="UTF-8"?>
<!DOCTYPE svg PUBLIC "-//W3C//DTD SVG 1.1//EN" "http://www.w3.org/Graphics/SVG/1.1/DTD/svg11.dtd">
<svg xmlns="http://www.w3.org/2000/svg" xmlns:xlink="http://www.w3.org/1999/xlink" width="895px" height="664px" version="1.1" content="%3Cmxfile%20userAgent%3D%22Mozilla%2F5.0%20(Windows%20NT%2010.0%3B%20Win64%3B%20x64)%20AppleWebKit%2F537.36%20(KHTML%2C%20like%20Gecko)%20Chrome%2F53.0.2785.116%20Safari%2F537.36%22%20version%3D%225.6.0.5%22%20editor%3D%22www.draw.io%22%20type%3D%22device%22%3E%3Cdiagram%3E7VhNj5swEP013AETIMeFJltt1apSDj074IAbg5FxNkl%2FfYcwbPjKZleiUQ%2FkEOw344%2BZ98Y4MUiYnZ4VLdLvMmbCsM34ZJAvhm1bjunAo0LONeJ7bg0kisfodAU2%2FA9D0ET0wGNWdhy1lELzogtGMs9ZpDsYVUoeu247KbqrFjRhA2ATUTFEf%2FFYpzW6NP0r%2FpXxJMWVXR8HbGm0T5Q85LicYZPd5VObM9pMhXGWKY3lsQWRlUFCJaWuW3L7uwrPNgXdQopxzmpkk8brqOwUMgE0rOsuNHB0x2r28l%2FqcxO0kNGeVVbLIEETqGK5bm95fWs6Uo94peLA2httLXBMuWabgkZV%2FwjKgXVSnQlc8hJj8JbBUAqpwJTLHPyDUiu5Z6NgQxEkIthxIXpOO5nrNc24qMT4Q2oJu9rQvIRH%2BPINvl9%2BohcKEUKt%2B72JqOBJDt0IcsLUaJIwq69MaXZqQZi0ZyYzptUZXBorKuHc7R6vqvOXiKVtxbkIUlR68jaz3ZYA8nSDM3vI2YoYvm08OZcGMZ4sbAQhmgJ%2FwOunteLf1wqMgGKvsj6haqAcw9A0Xfd%2Fkc5AJz012e9qZ9nVDiFD8VjWiHgscwLxNEfYeyTC8VZUzegseB5f4p7ZvMUm8e7T6Y6w6U9BpnWfzLki73PouL3j3H1oSY6c5zOLn2dxYS26lTjyVv6HLH7gJjWz%2BIFa9JwOi473UBadmcUpWPRI76342FpczJecSem0ekerNVKUE11yoHv9IX2xtf6sIKu%2F%3C%2Fdiagram%3E%3C%2Fmxfile%3E" style="background-color: rgb(255, 255, 255);"><defs/><g transform="translate(0.5,0.5)"><ellipse cx="137" cy="372" rx="55" ry="50" fill="none" stroke="#cc0066" stroke-width="2" pointer-events="none"/><path d="M 362 338 C 362 354 422 354 422 338" fill="none" stroke="#cc0066" stroke-width="2" stroke-miterlimit="10" pointer-events="none"/><path d="M 362 338 C 362 316.67 422 316.67 422 338 L 422 386 C 422 407.33 362 407.33 362 386 Z" fill="none" stroke="#cc0066" stroke-width="2" stroke-miterlimit="10" pointer-events="none"/><ellipse cx="507" cy="202" rx="55" ry="50" fill="none" stroke="#cc0066" stroke-width="2" pointer-events="none"/><ellipse cx="562" cy="352" rx="55" ry="50" fill="none" stroke="#cc0066" stroke-width="2" pointer-events="none"/><ellipse cx="521" cy="512" rx="55" ry="50" fill="none" stroke="#cc0066" stroke-width="2" pointer-events="none"/><ellipse cx="777" cy="352" rx="55" ry="50" fill="none" stroke="#cc0066" stroke-width="2" pointer-events="none"/><path d="M 107 178 C 107 194 167 194 167 178" fill="none" stroke="#cc0066" stroke-width="2" stroke-miterlimit="10" pointer-events="none"/><path d="M 107 178 C 107 156.67 167 156.67 167 178 L 167 226 C 167 247.33 107 247.33 107 226 Z" fill="none" stroke="#cc0066" stroke-width="2" stroke-miterlimit="10" pointer-events="none"/></g></svg>